REM DIRINDEX 1\2,1\3,1\4,1\5,1\6
REM DIRNAME cjc030,folder01,folder02,folder03,folder04,folder05
TITLE ""
FILE "Disc2Track01.mp3" MP3
  TRACK 01 AUDIO
    TITLE "3:cjc030_02018"
    INDEX 01 00:00:00
  TRACK 02 AUDIO
    TITLE "0:"
    INDEX 01 00:01:13
  TRACK 03 AUDIO
    TITLE "4:cjc030_02019"
    INDEX 01 00:01:22
  TRACK 04 AUDIO
    TITLE "0:"
    INDEX 01 00:03:35
  TRACK 05 AUDIO
    TITLE "5:cjc030_02020"
    INDEX 01 00:03:41
  TRACK 06 AUDIO
    TITLE "0:"
    INDEX 01 00:04:58
  TRACK 07 AUDIO
    TITLE "6:cjc030_02021"
    INDEX 01 00:04:72
  TRACK 08 AUDIO
    TITLE "0:"
    INDEX 01 00:10:10
  TRACK 09 AUDIO
    TITLE "3:cjc030_02022"
    INDEX 01 00:10:63
  TRACK 10 AUDIO
    TITLE "0:"
    INDEX 01 00:12:03
  TRACK 11 AUDIO
    TITLE "4:cjc030_02023"
    INDEX 01 00:12:12
  TRACK 12 AUDIO
    TITLE "0:"
    INDEX 01 00:13:10
  TRACK 13 AUDIO
    TITLE "5:cjc030_02024"
    INDEX 01 00:13:16
  TRACK 14 AUDIO
    TITLE "0:"
    INDEX 01 00:14:33
  TRACK 15 AUDIO
    TITLE "3:cjc030_02025"
    INDEX 01 00:15:11
  TRACK 16 AUDIO
    TITLE "0:"
    INDEX 01 00:16:38
  TRACK 17 AUDIO
    TITLE "4:cjc030_02026"
    INDEX 01 00:16:49
  TRACK 18 AUDIO
    TITLE "0:"
    INDEX 01 00:17:57
  TRACK 19 AUDIO
    TITLE "5:cjc030_02027"
    INDEX 01 00:17:63
  TRACK 20 AUDIO
    TITLE "0:"
    INDEX 01 00:19:20
  TRACK 21 AUDIO
    TITLE "3:cjc030_02028"
    INDEX 01 00:19:73
  TRACK 22 AUDIO
    TITLE "0:"
    INDEX 01 00:21:29
  TRACK 23 AUDIO
    TITLE "4:cjc030_02029"
    INDEX 01 00:21:35
  TRACK 24 AUDIO
    TITLE "0:"
    INDEX 01 00:22:34
  TRACK 25 AUDIO
    TITLE "5:cjc030_02030"
    INDEX 01 00:22:44
  TRACK 26 AUDIO
    TITLE "0:"
    INDEX 01 00:23:73
  TRACK 27 AUDIO
    TITLE "3:cjc030_02031"
    INDEX 01 00:24:57
  TRACK 28 AUDIO
    TITLE "0:"
    INDEX 01 00:26:07
  TRACK 29 AUDIO
    TITLE "4:cjc030_02032"
    INDEX 01 00:26:15
  TRACK 30 AUDIO
    TITLE "0:"
    INDEX 01 00:27:10
  TRACK 31 AUDIO
    TITLE "5:cjc030_02033"
    INDEX 01 00:27:16
  TRACK 32 AUDIO
    TITLE "0:"
    INDEX 01 00:28:43
  TRACK 33 AUDIO
    TITLE "3:cjc030_02034"
    INDEX 01 00:29:29
  TRACK 34 AUDIO
    TITLE "0:"
    INDEX 01 00:30:18
  TRACK 35 AUDIO
    TITLE "4:cjc030_02035"
    INDEX 01 00:30:28
  TRACK 36 AUDIO
    TITLE "0:"
    INDEX 01 00:31:02
  TRACK 37 AUDIO
    TITLE "5:cjc030_02036"
    INDEX 01 00:31:10
  TRACK 38 AUDIO
    TITLE "0:"
    INDEX 01 00:32:03
  TRACK 39 AUDIO
    TITLE "6:cjc030_02037"
    INDEX 01 00:32:15
  TRACK 40 AUDIO
    TITLE "0:"
    INDEX 01 00:36:11
  TRACK 41 AUDIO
    TITLE "3:cjc030_02038"
    INDEX 01 00:36:56
  TRACK 42 AUDIO
    TITLE "0:"
    INDEX 01 00:37:67
  TRACK 43 AUDIO
    TITLE "4:cjc030_02039"
    INDEX 01 00:38:04
  TRACK 44 AUDIO
    TITLE "0:"
    INDEX 01 00:39:05
  TRACK 45 AUDIO
    TITLE "5:cjc030_02040"
    INDEX 01 00:39:15
  TRACK 46 AUDIO
    TITLE "0:"
    INDEX 01 00:40:28
  TRACK 47 AUDIO
    TITLE "3:cjc030_02041"
    INDEX 01 00:41:08
  TRACK 48 AUDIO
    TITLE "0:"
    INDEX 01 00:42:21
  TRACK 49 AUDIO
    TITLE "4:cjc030_02042"
    INDEX 01 00:42:31
  TRACK 50 AUDIO
    TITLE "0:"
    INDEX 01 00:44:58
  TRACK 51 AUDIO
    TITLE "5:cjc030_02043"
    INDEX 01 00:44:65
  TRACK 52 AUDIO
    TITLE "0:"
    INDEX 01 00:46:07
  TRACK 53 AUDIO
    TITLE "6:cjc030_02044"
    INDEX 01 00:46:19
  TRACK 54 AUDIO
    TITLE "0:"
    INDEX 01 00:50:72
  TRACK 55 AUDIO
    TITLE "3:cjc030_02045"
    INDEX 01 00:51:48
  TRACK 56 AUDIO
    TITLE "0:"
    INDEX 01 00:52:61
  TRACK 57 AUDIO
    TITLE "4:cjc030_02046"
    INDEX 01 00:52:69
  TRACK 58 AUDIO
    TITLE "0:"
    INDEX 01 00:54:03
  TRACK 59 AUDIO
    TITLE "5:cjc030_02047"
    INDEX 01 00:54:09
  TRACK 60 AUDIO
    TITLE "0:"
    INDEX 01 00:55:24
  TRACK 61 AUDIO
    TITLE "6:cjc030_02048"
    INDEX 01 00:55:38
  TRACK 62 AUDIO
    TITLE "0:"
    INDEX 01 01:00:72
  TRACK 63 AUDIO
    TITLE "3:cjc030_02049"
    INDEX 01 01:01:44
  TRACK 64 AUDIO
    TITLE "0:"
    INDEX 01 01:02:63
  TRACK 65 AUDIO
    TITLE "4:cjc030_02050"
    INDEX 01 01:02:71
  TRACK 66 AUDIO
    TITLE "0:"
    INDEX 01 01:05:66
  TRACK 67 AUDIO
    TITLE "5:cjc030_02051"
    INDEX 01 01:06:00
  TRACK 68 AUDIO
    TITLE "0:"
    INDEX 01 01:07:17
  TRACK 69 AUDIO
    TITLE "6:cjc030_02052"
    INDEX 01 01:07:31
  TRACK 70 AUDIO
    TITLE "0:"
    INDEX 01 01:12:52
  TRACK 71 AUDIO
    TITLE "3:cjc030_02053"
    INDEX 01 01:13:26
  TRACK 72 AUDIO
    TITLE "0:"
    INDEX 01 01:14:29
  TRACK 73 AUDIO
    TITLE "4:cjc030_02054"
    INDEX 01 01:14:37
  TRACK 74 AUDIO
    TITLE "0:"
    INDEX 01 01:15:37
  TRACK 75 AUDIO
    TITLE "5:cjc030_02055"
    INDEX 01 01:15:44
  TRACK 76 AUDIO
    TITLE "0:"
    INDEX 01 01:16:46
  TRACK 77 AUDIO
    TITLE "6:cjc030_02056"
    INDEX 01 01:16:60
  TRACK 78 AUDIO
    TITLE "0:"
    INDEX 01 01:20:20
  TRACK 79 AUDIO
    TITLE "3:cjc030_02057"
    INDEX 01 01:20:67
  TRACK 80 AUDIO
    TITLE "0:"
    INDEX 01 01:22:05
  TRACK 81 AUDIO
    TITLE "4:cjc030_02058"
    INDEX 01 01:22:15
  TRACK 82 AUDIO
    TITLE "0:"
    INDEX 01 01:23:09
  TRACK 83 AUDIO
    TITLE "5:cjc030_02059"
    INDEX 01 01:23:20
  TRACK 84 AUDIO
    TITLE "0:"
    INDEX 01 01:24:30
  TRACK 85 AUDIO
    TITLE "6:cjc030_02060"
    INDEX 01 01:24:43
  TRACK 86 AUDIO
    TITLE "0:"
    INDEX 01 01:25:68
